<?xml version="1.0" encoding="UTF-8"?>
<svg xmlns="http://www.w3.org/2000/svg" xmlns:xlink="http://www.w3.org/1999/xlink" width="210pt" height="209.999996pt" viewBox="0 0 210 209.999996" version="1.2">
<defs>
<clipPath id="clip1">
  <path d="M 7.226562 5 L 202 5 L 202 200 L 7.226562 200 Z M 7.226562 5 "/>
</clipPath>
</defs>
<g id="surface1">
<g clip-path="url(#clip1)" clip-rule="nonzero">
<path style=" stroke:none;fill-rule:nonzero;fill:rgb(0%,0%,0%);fill-opacity:1;" d="M 104.785156 5.207031 C 65.183594 5.207031 32.988281 37.402344 32.988281 77.003906 L 32.988281 92.148438 C 27.207031 91.039062 23.863281 90.175781 23.777344 90.152344 C 17.070312 88.242188 10.058594 92.164062 8.136719 98.863281 C 7.210938 102.113281 7.601562 105.539062 9.25 108.496094 C 10.761719 111.21875 13.1875 113.199219 16.097656 114.230469 L 16.097656 120.863281 C 16.097656 150.992188 35.992188 186.714844 66.222656 199.160156 C 66.738281 199.371094 67.273438 199.480469 67.832031 199.480469 L 141.738281 199.480469 C 142.296875 199.480469 142.832031 199.371094 143.347656 199.160156 C 173.582031 186.714844 193.476562 150.996094 193.476562 120.863281 L 193.476562 114.230469 C 199.703125 112.015625 203.269531 105.335938 201.433594 98.886719 C 200.511719 95.636719 198.367188 92.933594 195.40625 91.28125 C 192.453125 89.636719 189.042969 89.242188 185.8125 90.152344 C 185.71875 90.179688 182.371094 91.035156 176.582031 92.148438 L 176.582031 77.003906 C 176.582031 37.402344 144.390625 5.207031 104.785156 5.207031 Z M 104.785156 13.65625 C 139.824219 13.65625 168.136719 41.964844 168.136719 77.003906 L 168.136719 93.601562 C 154.429688 95.757812 133.179688 98.121094 104.785156 98.121094 C 76.386719 98.121094 55.140625 95.757812 41.4375 93.601562 L 41.4375 77.003906 C 41.4375 41.964844 69.746094 13.65625 104.785156 13.65625 Z M 24.542969 116.34375 C 28.605469 117.203125 34.191406 118.234375 41.4375 119.277344 C 41.4375 124.769531 41.945312 130.515625 42.953125 136.320312 C 35.203125 135.210938 29.84375 134.15625 25.871094 133.292969 C 25.03125 129.054688 24.542969 124.871094 24.542969 120.863281 Z M 185.027344 116.34375 L 185.027344 120.863281 C 185.027344 124.871094 184.539062 129.054688 183.699219 133.292969 C 179.726562 134.15625 174.367188 135.210938 166.617188 136.320312 C 167.628906 130.515625 168.132812 124.769531 168.136719 119.277344 C 175.378906 118.234375 180.96875 117.199219 185.027344 116.34375 Z M 49.914062 120.375 C 56.121094 121.117188 63.152344 121.78125 71.039062 122.3125 C 71.085938 128.023438 71.265625 133.675781 71.75 139.257812 C 64.386719 138.761719 57.667969 138.15625 51.820312 137.476562 C 50.636719 131.628906 49.992188 125.839844 49.914062 120.375 Z M 159.65625 120.375 C 159.578125 125.839844 158.933594 131.628906 157.75 137.476562 C 151.898438 138.15625 145.183594 138.761719 137.820312 139.257812 C 138.304688 133.675781 138.488281 128.023438 138.53125 122.3125 C 146.417969 121.78125 153.453125 121.117188 159.65625 120.375 Z M 79.480469 122.785156 C 86.035156 123.109375 93.023438 123.316406 100.5625 123.378906 L 100.5625 140.289062 C 93.234375 140.226562 86.410156 140.03125 80.039062 139.71875 C 79.628906 134.273438 79.507812 128.613281 79.480469 122.785156 Z M 130.09375 122.785156 C 130.0625 128.613281 129.941406 134.273438 129.53125 139.71875 C 123.160156 140.03125 116.335938 140.226562 109.007812 140.289062 L 109.007812 123.378906 C 116.546875 123.316406 123.535156 123.109375 130.09375 122.785156 Z M 28.230469 142.367188 C 32.648438 143.234375 37.828125 144.140625 44.910156 145.089844 C 46.472656 151.066406 48.570312 156.988281 51.210938 162.675781 C 45.628906 162.007812 40.667969 161.332031 36.535156 160.644531 C 33.066406 154.800781 30.253906 148.605469 28.230469 142.367188 Z M 181.339844 142.367188 C 179.316406 148.613281 176.5 154.8125 173.027344 160.660156 C 168.902344 161.34375 163.921875 162.03125 158.359375 162.691406 C 161.003906 157 163.097656 151.074219 164.664062 145.089844 C 171.742188 144.140625 176.925781 143.234375 181.339844 142.367188 Z M 53.957031 146.175781 C 59.617188 146.792969 65.820312 147.355469 72.730469 147.792969 C 73.609375 153.597656 74.921875 159.308594 76.847656 164.910156 C 71.210938 164.59375 66.015625 164.210938 61.183594 163.761719 C 60.789062 163.035156 60.375 162.328125 60.003906 161.585938 C 57.539062 156.671875 55.527344 151.464844 53.957031 146.175781 Z M 155.613281 146.175781 C 154.046875 151.464844 152.03125 156.671875 149.566406 161.585938 C 149.195312 162.324219 148.777344 163.03125 148.386719 163.753906 C 143.542969 164.203125 138.378906 164.59375 132.722656 164.910156 C 134.648438 159.308594 135.960938 153.597656 136.839844 147.792969 C 143.75 147.355469 149.953125 146.792969 155.613281 146.175781 Z M 80.945312 148.214844 C 87.078125 148.5 93.589844 148.679688 100.5625 148.734375 L 100.5625 165.644531 C 95.214844 165.601562 90.109375 165.488281 85.269531 165.304688 C 83.171875 159.785156 81.804688 154.105469 80.945312 148.214844 Z M 128.625 148.214844 C 127.765625 154.105469 126.398438 159.785156 124.300781 165.304688 C 119.464844 165.488281 114.355469 165.609375 109.007812 165.652344 L 109.007812 148.734375 C 115.980469 148.679688 122.492188 148.5 128.625 148.214844 Z M 43.042969 170.164062 C 46.917969 170.707031 51.324219 171.210938 56.035156 171.699219 C 60.589844 179.09375 66.238281 185.726562 72.960938 191.035156 L 68.953125 191.035156 C 59.039062 186.820312 50.199219 179.292969 43.042969 170.164062 Z M 166.527344 170.164062 C 159.375 179.292969 150.53125 186.820312 140.617188 191.035156 L 136.609375 191.035156 C 143.332031 185.726562 148.980469 179.09375 153.535156 171.699219 C 158.261719 171.207031 162.644531 170.707031 166.527344 170.164062 Z M 66.84375 172.722656 C 71.113281 173.050781 75.589844 173.34375 80.386719 173.570312 C 83.246094 179.546875 86.949219 185.378906 91.769531 191.035156 L 88.914062 191.035156 C 80.132812 187.265625 72.761719 180.769531 66.84375 172.722656 Z M 142.730469 172.722656 C 136.808594 180.769531 129.4375 187.265625 120.65625 191.035156 L 117.800781 191.035156 C 122.625 185.375 126.324219 179.542969 129.183594 173.5625 C 133.980469 173.335938 138.460938 173.050781 142.730469 172.722656 Z M 120.335938 173.882812 C 117.480469 179.046875 113.761719 184.070312 109.007812 188.996094 L 109.007812 174.089844 C 112.914062 174.058594 116.691406 173.992188 120.335938 173.882812 Z M 89.246094 173.894531 C 92.882812 174 96.660156 174.058594 100.5625 174.089844 L 100.5625 188.996094 C 95.8125 184.074219 92.097656 179.050781 89.246094 173.894531 Z M 89.246094 173.894531 "/>
</g>
</g>
</svg>
